PathFileType	4	(X/Y/Z)	RBDS03\RBDS03runT45.trc
DataRate	CameraRate	NumFrames	NumMarkers	Units	OrigDataRate	OrigDataStartFrame	OrigNumFrames
150.000000	150.000000	4	33	mm	150.000000	562	4500
Frame#	Time	L.ASIS			L.Heel.Bottom			L.Heel.Lateral			L.Heel.Top			L.Iliac.Crest			L.MT1			L.MT5			L.PSIS			L.Shank.Bottom.Lateral			L.Shank.Bottom.Medial			L.Shank.Top.Lateral			L.Shank.Top.Medial			L.Thigh.Bottom.Lateral			L.Thigh.Bottom.Medial			L.Thigh.Top.Lateral			L.Thigh.Top.Medial			R.ASIS			R.ASY			R.Heel.Bottom			R.Heel.Lateral			R.Heel.Top			R.Iliac.Crest			R.MT1			R.MT5			R.PSIS			R.Shank.Bottom.Lateral			R.Shank.Bottom.Medial			R.Shank.Top.Lateral			R.Shank.Top.Medial			R.Thigh.Bottom.Lateral			R.Thigh.Bottom.Medial			R.Thigh.Top.Lateral			R.Thigh.Top.Medial			
		X1	Y1	Z1	X2	Y2	Z2	X3	Y3	Z3	X4	Y4	Z4	X5	Y5	Z5	X6	Y6	Z6	X7	Y7	Z7	X8	Y8	Z8	X9	Y9	Z9	X10	Y10	Z10	X11	Y11	Z11	X12	Y12	Z12	X13	Y13	Z13	X14	Y14	Z14	X15	Y15	Z15	X16	Y16	Z16	X17	Y17	Z17	X18	Y18	Z18	X19	Y19	Z19	X20	Y20	Z20	X21	Y21	Z21	X22	Y22	Z22	X23	Y23	Z23	X24	Y24	Z24	X25	Y25	Z25	X26	Y26	Z26	X27	Y27	Z27	X28	Y28	Z28	X29	Y29	Z29	X30	Y30	Z30	X31	Y31	Z31	X32	Y32	Z32	X33	Y33	Z33	

563	3.746666666666667	2480.880142780535	1026.679065701824	974.1428092811295	1868.912342193031	186.7445701423451	1040.983115084576	1899.806551825743	169.6202907419476	994.4997029975333	1909.634593971875	215.2204179928436	1037.33717499134	2427.735926175643	1098.416822301982	927.820021655416	2041.638499240277	56.53538756454334	1084.640153541028	2002.815831750441	62.17927006152756	981.1865286377972	2314.564884458142	1071.562760378948	1038.328338231767	2006.98689401874	250.7092894986715	978.889519910549	1971.741336963124	274.696883506611	1012.771813031657	2041.990531126951	321.1438496887694	964.2774223970699	2007.558662696689	345.8438750769885	997.1238596702044	2243.785095430165	625.9339949253576	952.6875653293964	2190.630958114914	653.3740851069367	995.5786440562844	2278.731620583499	727.9144062290064	931.0951708756435	2225.301167379293	754.6379394092158	968.3121285008979	2482.489570115079	1051.26457236103	1178.563553510319	-4787453.910313222	792366.3684458371	-2891230.906345232	2247.210572735412	308.522822428825	1103.151083861136	2284.746155356152	300.7359434706237	1152.696642722294	2289.051680408943	334.796183969154	1103.622888329686	2419.366617463653	1124.325678355914	1225.28982978532	2403.917080680177	159.2650551501276	1083.190390599853	2377.958484764084	178.4535568820226	1194.582169317439	2315.188856533945	1077.846428934349	1122.466450913714	2382.773611891381	353.6316069431905	1167.578879725432	2362.490235195005	381.9386775880747	1129.763908208132	2433.901405842602	419.4163391119755	1186.175025563055	2409.828449216817	445.45495181821	1146.272099492146	2626.543805176068	698.700536703511	1226.226848616357	2573.494993708286	658.4931072753599	1195.828649377234	2551.03230842519	776.1575349839089	1250.389757463799	2502.772837259484	739.1582683051976	1219.079075940805	
564	3.753333333333333	2486.317611990752	1031.192416029307	975.8337072984408	1856.431918546967	206.4441028633053	1037.6856721898	1886.074399609879	186.3317860576513	991.2680118470151	1899.389492802528	231.8894739351524	1033.552866056074	2436.200475693571	1104.7017422355	928.5712093513336	2020.484904127348	62.34190509270106	1082.488031816424	1981.609384229419	69.35079726561295	978.6210095676705	2319.030144019505	1077.703537917613	1036.721642544863	1993.93493695411	263.0344210695761	975.6208636182844	1958.619651349466	286.1335956558943	1010.125359839232	2028.223828981214	334.1217384871465	962.059084790642	1993.747178152548	357.9065866938143	995.6044644146846	2233.0767590767	638.1933811265154	953.7761931857485	2181.361600469849	667.9076706034	996.8502866092024	2272.378003708458	738.481825914033	932.0617312877737	2220.524071620825	767.4594677031857	969.765923919435	2484.057609622655	1057.235924673676	1179.082676540959	-4813561.45255926	797159.6330117446	-2906837.72695424	2272.719574975492	282.9704103205894	1099.683041334129	2310.1598889394	277.982966465466	1149.660195093463	2312.32185964823	312.5794608291047	1100.816990439357	2420.519506779404	1132.007534141305	1224.879955427405	2441.41540836761	146.9137923541406	1081.079653211683	2412.607401358821	163.4396833297085	1192.255234160554	2318.59870104707	1084.400622670054	1120.994178196831	2403.788112694692	338.9363344291078	1165.602282151941	2381.988357999398	365.5395182472056	1127.400174101597	2449.660643857644	408.4404198926403	1184.635031297541	2424.230562371622	432.5262882498255	1144.314978426786	2627.767045811543	704.7312143801813	1225.366007435957	2574.340289892197	663.9692161434186	1196.498059239105	2552.422173243005	782.5340301810559	1248.922881288888	2503.978094194746	745.1264440364193	1218.581618673372	
565	3.76	2491.437019253495	1035.534462516369	977.4128740278227	1844.638762280561	226.1538916289832	1034.851868726406	1872.953380559933	203.5680934008371	988.426526749304	1889.484149331991	248.7721412433391	1030.311790657112	2443.915895958944	1110.49372144775	929.4523059180631	2000.4208374737	69.80477065821223	1080.00225785122	1961.423621854022	78.22528164681145	976.0052243178794	2323.316859567098	1083.730072900525	1035.237670638342	1981.560887739926	275.8626459149047	972.7498289282216	1946.258558897146	298.2884046248915	1007.770752249046	2015.487720983012	347.3875209809497	960.1112609279212	1981.017201432805	370.4872170388146	994.2334978174651	2223.608515116435	650.1839442991574	954.7018409712618	2173.350096772552	681.9680414568797	997.9637169905851	2266.900917047252	748.7533526569763	932.8738895324506	2216.667261814371	779.796251693598	971.0867711657608	2485.474575848662	1062.515336924768	1179.572926673137	-4839763.621802249	801971.9695268268	-2922500.580707043	2299.779333460813	258.0680815113166	1096.663104555939	2336.955595607618	255.8068217508166	1147.027378681301	2336.849330519971	290.7978068244461	1098.409392787658	2421.83961229159	1139.26313930413	1224.62336430925	2479.188271767601	136.2343328837853	1079.187547556812	2448.024868137757	149.7153936887017	1190.141055983591	2321.874822941096	1090.642683077253	1119.609487345802	2425.414016007665	324.521644948623	1163.901136476139	2402.253834149309	349.359866107007	1125.268027614696	2465.757457276452	397.2985651272649	1183.355036488667	2439.200342176612	419.3683524279941	1142.565160056245	2628.135090588925	709.5452400272484	1224.56246181716	2574.260485221608	668.2542856710842	1197.300660097812	2553.080591284936	787.8726173505008	1247.373970345715	2504.361202534553	750.0441541050885	1218.129758282375	
566	3.766666666666667	2496.140721745047	1039.666339473762	978.8465209365625	1833.112354188137	245.6836069557226	1032.715762341819	1860.04408169951	221.1797228959518	986.1846572105786	1879.471957301673	265.7566496146883	1027.804230084916	2450.761903234885	1115.763030208549	930.3921967489836	1981.259062824259	78.90437366441053	1077.300719085066	1942.009767906897	88.80772485578677	973.4786886195989	2327.363394012044	1089.580993282233	1033.888073378457	1969.538083380845	289.1523604592436	970.3856709139817	1934.390029279318	311.1790559678237	1005.838876106352	2003.559456425756	360.8384900869075	958.5127215975474	1969.200289746205	383.5428010235814	993.1007034603305	2215.519160682229	661.5744355141281	955.3924794639765	2166.666184515897	695.1914081952518	998.8241986308313	2262.385251656509	758.4736196181993	933.4807736878595	2213.725112560084	791.3651578676792	972.1673921554149	2486.725352732414	1067.090924865853	1180.055068431796	-4866060.589078627	806803.4154910711	-2938219.567997509	2328.211623304586	233.9872801455514	1094.114587676498	2364.954516473779	234.3838881590903	1144.825979184928	2362.458008264078	269.6061216769255	1096.427736729459	2423.275280988176	1145.933173283705	1224.543824748197	2517.006398014955	127.3702999327211	1077.545818487461	2483.988414077191	137.4570784652385	1188.279695957425	2324.940238166452	1096.490158905426	1118.334619873781	2447.478114096944	310.5353162511751	1162.49750213367	2423.112965923832	333.5654436649059	1123.39703336947	2482.055347551258	386.1154371188173	1182.354094567286	2454.598347593256	406.1331180724098	1141.051402270778	2627.610635422679	713.0848254664791	1223.876669777263	2573.253555510544	671.3476658291424	1198.145452612881	2552.956118952967	792.0776352023307	1245.847629318329	2503.899291045941	753.8726792745441	1217.704204979898	
